<mxfile host="app.diagrams.net" agent="Mozilla/5.0 (Windows NT 10.0; Win64; x64) AppleWebKit/537.36 (KHTML, like Gecko) Chrome/128.0.0.0 Safari/537.36" version="24.7.14">
  <diagram name="Page-1" id="6qVybAu3rOkevgf7E7gu">
    <mxGraphModel dx="1120" dy="472" grid="1" gridSize="10" guides="1" tooltips="1" connect="1" arrows="1" fold="1" page="1" pageScale="1" pageWidth="827" pageHeight="1169" math="0" shadow="0">
      <root>
        <mxCell id="0" />
        <mxCell id="1" parent="0" />
        <mxCell id="wCxMIQV_NGHNsLSph-jk-4" value="" style="edgeStyle=orthogonalEdgeStyle;rounded=0;orthogonalLoop=1;jettySize=auto;html=1;" edge="1" parent="1" source="wCxMIQV_NGHNsLSph-jk-1" target="wCxMIQV_NGHNsLSph-jk-2">
          <mxGeometry relative="1" as="geometry" />
        </mxCell>
        <mxCell id="wCxMIQV_NGHNsLSph-jk-1" value="Start" style="ellipse;whiteSpace=wrap;html=1;" vertex="1" parent="1">
          <mxGeometry x="250" y="30" width="100" height="60" as="geometry" />
        </mxCell>
        <mxCell id="wCxMIQV_NGHNsLSph-jk-6" value="" style="edgeStyle=orthogonalEdgeStyle;rounded=0;orthogonalLoop=1;jettySize=auto;html=1;" edge="1" parent="1" source="wCxMIQV_NGHNsLSph-jk-2" target="wCxMIQV_NGHNsLSph-jk-5">
          <mxGeometry relative="1" as="geometry" />
        </mxCell>
        <mxCell id="wCxMIQV_NGHNsLSph-jk-2" value="Initialize Variables" style="shape=parallelogram;perimeter=parallelogramPerimeter;whiteSpace=wrap;html=1;fixedSize=1;" vertex="1" parent="1">
          <mxGeometry x="220" y="130" width="160" height="60" as="geometry" />
        </mxCell>
        <mxCell id="wCxMIQV_NGHNsLSph-jk-8" value="" style="edgeStyle=orthogonalEdgeStyle;rounded=0;orthogonalLoop=1;jettySize=auto;html=1;" edge="1" parent="1" source="wCxMIQV_NGHNsLSph-jk-5" target="wCxMIQV_NGHNsLSph-jk-7">
          <mxGeometry relative="1" as="geometry" />
        </mxCell>
        <mxCell id="wCxMIQV_NGHNsLSph-jk-5" value="Apply Boundary Conditions" style="whiteSpace=wrap;html=1;" vertex="1" parent="1">
          <mxGeometry x="240" y="270" width="120" height="60" as="geometry" />
        </mxCell>
        <mxCell id="wCxMIQV_NGHNsLSph-jk-10" value="" style="edgeStyle=orthogonalEdgeStyle;rounded=0;orthogonalLoop=1;jettySize=auto;html=1;" edge="1" parent="1" source="wCxMIQV_NGHNsLSph-jk-7" target="wCxMIQV_NGHNsLSph-jk-9">
          <mxGeometry relative="1" as="geometry" />
        </mxCell>
        <mxCell id="wCxMIQV_NGHNsLSph-jk-7" value="Initialize Velocity Fields" style="whiteSpace=wrap;html=1;" vertex="1" parent="1">
          <mxGeometry x="240" y="410" width="120" height="60" as="geometry" />
        </mxCell>
        <mxCell id="wCxMIQV_NGHNsLSph-jk-16" value="" style="edgeStyle=orthogonalEdgeStyle;rounded=0;orthogonalLoop=1;jettySize=auto;html=1;" edge="1" parent="1" source="wCxMIQV_NGHNsLSph-jk-9" target="wCxMIQV_NGHNsLSph-jk-15">
          <mxGeometry relative="1" as="geometry" />
        </mxCell>
        <mxCell id="wCxMIQV_NGHNsLSph-jk-9" value="Iterate until convergence" style="shape=parallelogram;perimeter=parallelogramPerimeter;whiteSpace=wrap;html=1;fixedSize=1;" vertex="1" parent="1">
          <mxGeometry x="240" y="525" width="120" height="60" as="geometry" />
        </mxCell>
        <mxCell id="wCxMIQV_NGHNsLSph-jk-15" value="Calculate the spatial derivatives using central differences&lt;div&gt;&lt;br&gt;&lt;/div&gt;&lt;div&gt;du/dx = (u[i+1, j] - u[i-1, j]) / (2*dx)&lt;br&gt;&lt;/div&gt;&lt;div&gt;du/dy = (u[i, j+1] - u[i, j-1]) / (2*dy)&lt;br&gt;&lt;/div&gt;&lt;div&gt;d2u/dy2 = (u[i, j+1] - 2*u[i, j] + u[i, j-1]) / (dy^2)&lt;/div&gt;" style="whiteSpace=wrap;html=1;" vertex="1" parent="1">
          <mxGeometry x="130" y="650" width="340" height="95" as="geometry" />
        </mxCell>
      </root>
    </mxGraphModel>
  </diagram>
</mxfile>
